<?xml version="1.0" encoding="iso-8859-1"?>
<!-- Generator: Adobe Illustrator 19.1.0, SVG Export Plug-In . SVG Version: 6.00 Build 0)  -->
<svg version="1.1" id="Capa_1" xmlns="http://www.w3.org/2000/svg" xmlns:xlink="http://www.w3.org/1999/xlink" x="0px" y="0px"
	 viewBox="0 0 513.32 513.32" style="enable-background:new 0 0 513.32 513.32;" xml:space="preserve">
<g>
	<g>
		<g>
			<path d="M310.131,106.942H128.33v299.437h42.777V299.437h139.024c53.471,0,96.247-42.777,96.247-96.247
				S363.602,106.942,310.131,106.942L310.131,106.942z M310.131,256.66H171.107V149.718h139.024
				c29.944,0,53.471,23.527,53.471,53.471S340.074,256.66,310.131,256.66z"/>
			<path d="M449.155,0H64.165C27.805,0,0,27.805,0,64.165v384.99c0,36.36,27.805,64.165,64.165,64.165h384.99
				c36.36,0,64.165-27.805,64.165-64.165V64.165C513.32,27.805,485.515,0,449.155,0z M470.543,449.155
				c0,12.833-8.555,21.388-21.388,21.388H64.165c-12.833,0-21.388-8.555-21.388-21.388V64.165c0-12.833,8.555-21.388,21.388-21.388
				h384.99c12.833,0,21.388,8.555,21.388,21.388V449.155z"/>
		</g>
	</g>
</g>
<g>
</g>
<g>
</g>
<g>
</g>
<g>
</g>
<g>
</g>
<g>
</g>
<g>
</g>
<g>
</g>
<g>
</g>
<g>
</g>
<g>
</g>
<g>
</g>
<g>
</g>
<g>
</g>
<g>
</g>
</svg>
